<?xml version="1.0" encoding="UTF-8"?>
<svg id="Capa_2" data-name="Capa 2" xmlns="http://www.w3.org/2000/svg" viewBox="0 0 593.04 291.98">
  <defs>
    <style>
      .cls-1 {
        fill: #f376a8;
        stroke-width: 0px;
      }
    </style>
  </defs>
  <g id="Capa_1-2" data-name="Capa 1">
    <g>
      <path class="cls-1" d="m77.87,235.27c4.33-14.73,9.23-29.13,12.31-44.21s5.46-29.72,7.29-44.73c3.65-29.86,6.16-60.71,4.27-90.79l-16.36,4.43c8.63,19.34,16.09,39.29,24.08,58.91,3.65,8.96,6.84,18.3,11.19,26.95,3.67,7.3,9.19,14.24,17.16,17,17.09,5.92,29.98-9.34,36-23.39,7.64-17.85,12.68-37.12,16.02-56.22,3.92-22.39,5.34-45.12,4.07-67.82-.61-10.81-15.92-10.71-16.73,0-5.28,69.34-3.09,139.05,6.29,207.95,1.31,9.59,2.76,19.16,4.35,28.71s3.12,23.99,6.05,33.35c1.25,4.01,6.29,7.29,11.57,6.42,6.26-1.04,6.78-7.59,5.41-13.11-4.99-16.16-6.97-33.65-9.46-50.35s-4.6-34.3-6.19-51.53c-3.14-34.05-4.52-68.28-4-102.47.3-19.68,1.22-39.34,2.71-58.97h-16.73c1.95,34.57-2.36,69.11-13.04,102.06-2.3,7.1-4.55,14.44-8.35,20.91-2.22,3.78-6.09,9.61-11.21,9.06s-8.21-7.25-10.14-11.3c-3.64-7.62-6.42-15.72-9.54-23.56-7.84-19.75-16.27-39.37-23.45-59.37-3.25-9.05-17.12-8.01-17.25,2.33-.37,29.76-.47,59.24-3.69,88.89-1.57,14.48-3.52,28.94-5.96,43.3s-4.25,29.87-7.58,44.53c-1.61,7.09,8.85,10.03,10.92,3.01h0Z"/>
      <g>
        <path class="cls-1" d="m223.75,113.08c-3.8,35.77-3.17,72,1.87,107.61.17-4.67.33-9.33.5-14"/>
        <path class="cls-1" d="m219.4,111.89c-3.03,8.29-3.1,17.88-3.77,26.62-.72,9.46-1.13,18.95-1.17,28.44-.07,18.36.06,37.76,3.53,55.85,1.66,8.62,16.71,6.77,15.53-2.1-.69-5.17-1.29-11.47-3.95-16.02-1.6-2.73-5.25-2.43-6.92,0-2.59,3.79-3.73,9.43-4.66,13.92l15.53,2.1c-.79-9.12-2.52-18.17-3.43-27.3-.9-9.12-1.52-18.27-1.86-27.43s-.46-18.31-.28-27.46,1.4-17.83.13-26.62c-.7-4.85-7.36-3.67-8.7,0h0Z"/>
      </g>
      <g>
        <path class="cls-1" d="m275.15,3c-6.29,79.63-5.48,159.82,2.4,239.3"/>
        <path class="cls-1" d="m273.64.42c-3.76,1.99-5.08,6.69-5.96,10.6-1.13,5.08-1.6,10.52-2.13,15.69-1.08,10.52-1.75,21.08-2.28,31.65-1.06,21.11-1.61,42.23-1.51,63.36s.69,42.24,1.77,63.33c.54,10.54,1.21,21.08,2,31.61.39,5.25,1.07,10.53,1.28,15.79.26,6.55.97,10.12,5.96,14.64,3.49,3.16,7.98,2.23,10.63-1.37,3.88-5.28,3.72-8.88,2.83-15.24-.73-5.21-.97-10.54-1.41-15.79-.88-10.53-1.63-21.07-2.26-31.62-1.24-20.76-2-41.55-2.27-62.35s-.23-41.59.29-62.37c.26-10.55.64-21.1.85-31.65.15-7.67,2.09-21.03-4.77-26.29-.85-.65-2.16-.46-3.02,0h0Z"/>
      </g>
      <path class="cls-1" d="m320.13,137.1c-3.1,6.69-6.33,12.97-8.28,20.17-2.06,7.61-3.04,15.93-2.32,23.79,1.08,11.74,6.41,23.55,15.76,31.01s22.44,9.76,33.96,4.73c11.4-4.97,19.9-15.46,25.19-26.47,11.68-24.28,13.16-53.44,3.82-78.76-4.49-12.19-11.3-25.02-23.07-31.6s-24.98-3.98-34.32,5.26c-10.55,10.42-16.11,26.33-19.66,40.38-3.97,15.72-6.13,32.61-3.83,48.74.46,3.25,5.78,3.08,6.39,0,2.3-11.62,4.13-23.42,8.03-34.64s8.14-21.06,13.5-31.06c3.26-6.09,8.31-15.69,16.43-15.46,8.63.25,14.65,10.47,17.95,17.23,9.06,18.62,10.34,40.69,4.83,60.51-3.89,14-15.97,39.43-34.77,32.44-9.1-3.38-15.04-13.13-16.85-22.25-1.36-6.87-.74-13.89.22-20.75s1.94-13.87,3.14-20.7c.61-3.44-4.42-6.31-6.14-2.59h0Z"/>
      <path class="cls-1" d="m405.91,74.69c11.43,12.08,32.51,15.14,48.43,14.99,17.55-.16,34.93-5.05,49.84-14.32l-10.14-10.14c-40.23,65.34-79.72,131.14-119.47,196.77-4.16,6.86,4.25,15.66,11.2,11.2,21.22-13.63,45.45-22.68,70.1-27.78,11.94-2.47,24.05-3.81,36.23-4.08,6.22-.14,12.44.02,18.66.37,3.38.19,6.76.6,10.15.72,3.9.14,6.78-1.16,10.2-2.83,3.84-1.88,4.53-7.98,1.39-10.77-2.79-2.48-5.28-4.53-9.04-5.23s-7.34-.92-11-1.18c-6.77-.48-13.57-.51-20.35-.26-13.54.51-27.11,2.26-40.35,5.14-26.66,5.81-51.41,16.95-74.24,31.77,3.73,3.73,7.46,7.46,11.2,11.2,39.45-65.81,79.18-131.46,118.14-197.55,3.66-6.21-3.8-14.25-10.14-10.14-12.68,8.22-27.24,12.8-42.36,13.23-7.3.21-14.48-.53-21.6-2.13-7.66-1.72-14.77-4.98-22.4-6.6-4.41-.93-7.66,4.21-4.43,7.62h0Z"/>
      <g>
        <path class="cls-1" d="m527.57,151.26c-34.65,1.83-69.38,2.01-104.04.54"/>
        <path class="cls-1" d="m527.57,148.91c-18.09.07-35.93-1.78-53.98-2.56-8.84-.38-17.68-.71-26.51-1.17-4.62-.24-9.13-.47-13.74.05-4.01.45-8.57.59-11.88,3.03-1.97,1.45-3,4.53-.83,6.43,6,5.28,16.86,5.29,24.49,5.23,9.17-.08,18.33-.23,27.49-.68,18.4-.9,36.63-3.81,54.96-5.64,2.95-.29,3.08-4.71,0-4.69h0Z"/>
      </g>
      <path class="cls-1" d="m230.57,83.04c-.35-.18-.7-.36-1.05-.55-.16-.09-.28-.18-.42-.29-1.6-1.2-3.65-1.4-5.43-.77l-1.62.82c-.79.51-1.42,1.22-1.9,2.11-.42.51-.71,1.11-.87,1.8-.42.97-.62,2.02-.58,3.15.05,1.45.36,2.84.92,4.13.79,1.8,2.47,3.2,4.05,3.76,1.83.65,3.78.38,5.43-.77.14-.1.27-.2.42-.29.35-.19.7-.37,1.05-.55.9-.65,1.62-1.51,2.16-2.61.54-1.13.82-2.35.82-3.67,0-1.31-.28-2.53-.82-3.67-.53-1.09-1.25-1.96-2.16-2.61h0Z"/>
      <path class="cls-1" d="m582.16,163.01c1.5.06,2.89-.26,4.19-.94,1.35-.44,2.51-1.19,3.5-2.25,1.06-.99,1.81-2.15,2.25-3.5.68-1.3.99-2.69.94-4.19l-.39-2.89c-.52-1.84-1.45-3.44-2.8-4.8l-2.2-1.7c-1.7-.98-3.53-1.48-5.49-1.48-1.5-.06-2.89.26-4.19.94-1.35.44-2.51,1.19-3.5,2.25-1.06.99-1.81,2.15-2.25,3.5-.68,1.3-.99,2.69-.94,4.19l.39,2.89c.52,1.84,1.45,3.44,2.8,4.8l2.2,1.7c1.7.98,3.53,1.48,5.49,1.48h0Z"/>
      <path class="cls-1" d="m10.88,163.01c1.5.06,2.89-.26,4.19-.94,1.35-.44,2.51-1.19,3.5-2.25,1.06-.99,1.81-2.15,2.25-3.5.68-1.3.99-2.69.94-4.19l-.39-2.89c-.52-1.84-1.45-3.44-2.8-4.8l-2.2-1.7c-1.7-.98-3.53-1.48-5.49-1.48-1.5-.06-2.89.26-4.19.94-1.35.44-2.51,1.19-3.5,2.25-1.06.99-1.81,2.15-2.25,3.5-.68,1.3-.99,2.69-.94,4.19l.39,2.89c.52,1.84,1.45,3.44,2.8,4.8l2.2,1.7c1.7.98,3.53,1.48,5.49,1.48h0Z"/>
    </g>
  </g>
</svg>